<?xml version="1.0" encoding="UTF-8"?>
<svg width="16px" height="15px" viewBox="0 0 16 15" version="1.1" xmlns="http://www.w3.org/2000/svg" xmlns:xlink="http://www.w3.org/1999/xlink">
    <!-- Generator: Sketch 40.3 (33839) - http://www.bohemiancoding.com/sketch -->
    <title>Shape</title>
    <desc>Created with Sketch.</desc>
    <defs></defs>
    <g id="Welcome" stroke="none" stroke-width="1" fill="none" fill-rule="evenodd">
        <g id="Desktop-HD" transform="translate(-1166.000000, -11.000000)" fill="#AABEBE">
            <g id="Toolbar">
                <path d="M1166,17.1213795 C1166,19.8800275 1167.49,22.2258852 1170.03,22.9809895 C1170.01,23.0716021 1170,23.1521465 1170,23.2427591 L1170,25.3973236 C1170,26.1222238 1170.51,26.1725641 1171.03,25.6590931 L1174,23.0816701 L1175.82,23.0816701 C1179.23,23.0816701 1182,20.3431582 1182,16.9602906 C1182,13.577423 1179.23,11 1175.82,11 L1172.18,11 C1168.77,11 1166,13.7385119 1166,17.1213795 L1166,17.1213795 Z M1170,15.0272234 L1178,15.0272234 L1178,16.0340292 L1170,16.0340292 L1170,15.0272234 L1170,15.0272234 Z M1170,17.0408351 L1178,17.0408351 L1178,18.0476409 L1170,18.0476409 L1170,17.0408351 L1170,17.0408351 Z M1170,19.0544467 L1175,19.0544467 L1175,20.0612526 L1170,20.0612526 L1170,19.0544467 L1170,19.0544467 Z" id="Shape"></path>
            </g>
        </g>
    </g>
</svg>