<?xml version="1.0" encoding="UTF-8"?>
<svg width="14px" height="15px" viewBox="0 0 14 15" version="1.1" xmlns="http://www.w3.org/2000/svg" xmlns:xlink="http://www.w3.org/1999/xlink">
    <!-- Generator: Sketch 40.3 (33839) - http://www.bohemiancoding.com/sketch -->
    <title>noti</title>
    <desc>Created with Sketch.</desc>
    <defs></defs>
    <g id="Welcome" stroke="none" stroke-width="1" fill="none" fill-rule="evenodd">
        <g id="Desktop-HD" transform="translate(-1200.000000, -11.000000)" fill="#AABEBE">
            <g id="Toolbar">
                <path d="M1213.5399,22.8718571 C1211.35376,21.5218571 1211.47076,17.135 1211.47333,17.0694286 C1211.47333,15.0217143 1210.11219,13.2864286 1208.2479,12.7177143 L1208.2479,12.3251429 C1208.2479,11.5944286 1207.65347,11 1206.92276,11 C1206.19247,11 1205.59762,11.5944286 1205.59762,12.3251429 L1205.59762,12.7177143 C1203.73333,13.2868571 1202.37262,15.0255714 1202.37305,17.0917143 C1202.41462,18.3182857 1202.12576,21.7481429 1200.30519,22.8718571 C1200.06047,23.0227143 1199.94605,23.3175714 1200.02447,23.5944286 C1200.10333,23.8708571 1200.35533,24.0615714 1200.6429,24.0615714 L1204.4919,24.0615714 C1204.74605,25.1698571 1205.73819,26 1206.92276,26 C1208.10733,26 1209.09947,25.1698571 1209.35405,24.0615714 L1213.20219,24.0615714 C1213.49019,24.0615714 1213.74262,23.8708571 1213.82105,23.5944286 C1213.89905,23.3175714 1213.78462,23.0227143 1213.5399,22.8718571 M1206.3459,22.7758571 L1202.22262,22.7758571 C1203.75776,20.609 1203.6639,17.2241429 1203.65833,17.0694286 C1203.65833,15.2694286 1205.12276,13.805 1206.92319,13.805 C1208.72319,13.805 1210.18762,15.2694286 1210.18805,17.0471429 C1210.18205,17.2207143 1210.08776,20.6085714 1211.62333,22.7758571 L1206.3459,22.7758571" id="noti"></path>
            </g>
        </g>
    </g>
</svg>