<?xml version="1.0" encoding="UTF-8"?>
<svg width="24px" height="24px" viewBox="0 0 24 24" version="1.1" xmlns="http://www.w3.org/2000/svg" xmlns:xlink="http://www.w3.org/1999/xlink">
    <!-- Generator: Sketch 40.3 (33839) - http://www.bohemiancoding.com/sketch -->
    <title>profile</title>
    <desc>Created with Sketch.</desc>
    <defs></defs>
    <g id="Welcome" stroke="none" stroke-width="1" fill="none" fill-rule="evenodd">
        <g id="Desktop-HD" transform="translate(-1269.000000, -7.000000)" fill="#AABEBE">
            <g id="Toolbar">
                <g id="profile" transform="translate(1269.000000, 7.000000)">
                    <path d="M23.5,12 C23.5,5.64872538 18.3512746,0.5 12,0.5 C5.64872538,0.5 0.5,5.64872538 0.5,12 C0.5,18.3512746 5.64872538,23.5 12,23.5 C18.3512746,23.5 23.5,18.3512746 23.5,12 Z M1.5,12 C1.5,6.20101013 6.20101013,1.5 12,1.5 C17.7989899,1.5 22.5,6.20101013 22.5,12 C22.5,17.7989899 17.7989899,22.5 12,22.5 C6.20101013,22.5 1.5,17.7989899 1.5,12 Z" id="Oval-3"></path>
                    <path d="M17.6021553,15.6203787 C18.035364,16.3354373 17.9992633,18 17.9992633,18 L6.00178858,18 C6.00178858,18 5.9416207,16.2299369 6.51923232,15.5148783 C6.84413886,15.2100992 7.86699277,14.166817 9.6118612,13.908927 C11.3446961,13.6627592 10.8152187,11.7871957 10.8753866,11.8106402 C10.9355545,11.845807 10.863353,11.412083 10.863353,11.412083 C10.863353,11.412083 9.59982762,10.2281335 9.6118612,9.16140667 C9.63592835,8.08295762 9.6118612,7.53201082 9.6118612,7.53201082 C9.6118612,7.53201082 9.81643198,5 11.5974011,5 L12.5961879,5.46889089 C14.1966534,5.46889089 14.4613921,7.53201082 14.4613921,7.53201082 L14.4613921,9.31379621 C14.4613921,9.31379621 14.2568213,10.8259693 13.2580345,11.3769161 C13.2580345,11.3769161 13.1858331,11.8106402 13.246001,11.7754734 C13.3061688,11.7520289 12.7285572,13.6627592 14.4613921,13.9206492 C16.2062605,14.166817 17.3735173,15.2335437 17.6021553,15.6203787 Z" id="Shape"></path>
                </g>
            </g>
        </g>
    </g>
</svg>